<svg xmlns="http://www.w3.org/2000/svg" viewBox="0 0 1200 800" width="1200" height="800"><defs><filter id="gs2" x="0" y="0" width="100%" height="100%"><feTurbulence type="fractalNoise" baseFrequency="0.85" numOctaves="2" stitchTiles="stitch"/><feColorMatrix type="matrix" values="0 0 0 0 1  0 0 0 0 1  0 0 0 0 1  0 0 0 1.4 -0.35"/></filter><linearGradient id="d-fade" x1="0" y1="0" x2="0" y2="1"><stop offset="0.35" stop-color="#0A0A0C" stop-opacity="1"/><stop offset="0.6" stop-color="#0A0A0C" stop-opacity="0"/></linearGradient><radialGradient id="d-glow" cx="0.5" cy="0.35" r="0.45"><stop offset="0" stop-color="#3a3a48"/><stop offset="1" stop-color="#0A0A0C"/></radialGradient></defs><rect width="1200" height="800" fill="url(#d-glow)"/><g stroke="#fff" stroke-opacity="0.22"><line x1="600" y1="330" x2="-940" y2="800"/><line x1="600" y1="330" x2="-830" y2="800"/><line x1="600" y1="330" x2="-720" y2="800"/><line x1="600" y1="330" x2="-610" y2="800"/><line x1="600" y1="330" x2="-500" y2="800"/><line x1="600" y1="330" x2="-390" y2="800"/><line x1="600" y1="330" x2="-280" y2="800"/><line x1="600" y1="330" x2="-170" y2="800"/><line x1="600" y1="330" x2="-60" y2="800"/><line x1="600" y1="330" x2="50" y2="800"/><line x1="600" y1="330" x2="160" y2="800"/><line x1="600" y1="330" x2="270" y2="800"/><line x1="600" y1="330" x2="380" y2="800"/><line x1="600" y1="330" x2="490" y2="800"/><line x1="600" y1="330" x2="600" y2="800"/><line x1="600" y1="330" x2="710" y2="800"/><line x1="600" y1="330" x2="820" y2="800"/><line x1="600" y1="330" x2="930" y2="800"/><line x1="600" y1="330" x2="1040" y2="800"/><line x1="600" y1="330" x2="1150" y2="800"/><line x1="600" y1="330" x2="1260" y2="800"/><line x1="600" y1="330" x2="1370" y2="800"/><line x1="600" y1="330" x2="1480" y2="800"/><line x1="600" y1="330" x2="1590" y2="800"/><line x1="600" y1="330" x2="1700" y2="800"/><line x1="600" y1="330" x2="1810" y2="800"/><line x1="600" y1="330" x2="1920" y2="800"/><line x1="600" y1="330" x2="2030" y2="800"/><line x1="600" y1="330" x2="2140" y2="800"/><line x1="0" y1="331.67" x2="1200" y2="331.67"/><line x1="0" y1="337.65" x2="1200" y2="337.65"/><line x1="0" y1="348.67" x2="1200" y2="348.67"/><line x1="0" y1="365.15" x2="1200" y2="365.15"/><line x1="0" y1="387.43" x2="1200" y2="387.43"/><line x1="0" y1="415.77" x2="1200" y2="415.77"/><line x1="0" y1="450.4" x2="1200" y2="450.4"/><line x1="0" y1="491.52" x2="1200" y2="491.52"/><line x1="0" y1="539.29" x2="1200" y2="539.29"/><line x1="0" y1="593.89" x2="1200" y2="593.89"/><line x1="0" y1="655.45" x2="1200" y2="655.45"/><line x1="0" y1="724.11" x2="1200" y2="724.11"/><line x1="0" y1="800" x2="1200" y2="800"/></g><rect width="1200" height="800" fill="url(#d-fade)"/><g stroke="#fff" stroke-opacity="0.85" stroke-width="1.5"><line x1="600" y1="226" x2="765.12" y2="322"/><line x1="765.12" y1="322" x2="600" y2="418"/><line x1="600" y1="418" x2="434.88" y2="322"/><line x1="434.88" y1="322" x2="600" y2="226"/><line x1="600" y1="34" x2="765.12" y2="130"/><line x1="765.12" y1="130" x2="600" y2="226"/><line x1="600" y1="226" x2="434.88" y2="130"/><line x1="434.88" y1="130" x2="600" y2="34"/><line x1="600" y1="226" x2="600" y2="34"/><line x1="765.12" y1="322" x2="765.12" y2="130"/><line x1="600" y1="418" x2="600" y2="226"/><line x1="434.88" y1="322" x2="434.88" y2="130"/></g><circle cx="600" cy="226" r="4" fill="#fff"/><circle cx="765.12" cy="322" r="4" fill="#fff"/><circle cx="600" cy="418" r="4" fill="#fff"/><circle cx="434.88" cy="322" r="4" fill="#fff"/><circle cx="600" cy="34" r="4" fill="#fff"/><circle cx="765.12" cy="130" r="4" fill="#fff"/><circle cx="600" cy="226" r="7" fill="#FF3D00"/><circle cx="434.88" cy="130" r="4" fill="#fff"/><text x="60" y="60" font-family="ui-monospace, 'JetBrains Mono', Menlo, monospace" font-size="13" letter-spacing="1.5" fill="#fff" fill-opacity="0.55" text-anchor="start">Z-AXIS / REAL-TIME</text><rect width="1200" height="800" filter="url(#gs2)" opacity="0.14" style="mix-blend-mode:overlay"/></svg>
